<?xml version="1.0" encoding="utf-8"?>
<!DOCTYPE svg PUBLIC "-//W3C//DTD SVG 1.1//EN" "http://www.w3.org/Graphics/SVG/1.1/DTD/svg11.dtd">
<svg version="1.1" baseProfile="full"
 xmlns="http://www.w3.org/2000/svg"
 xmlns:xlink="http://www.w3.org/1999/xlink"
 xmlns:ev="http://www.w3.org/2001/xml-events" 
  height="19px" 
  width="15px" 
>
<defs>
<filter id="Filter_0">
  <feFlood flood-color="rgb( 122, 122, 122 )" flood-opacity="1" result="floodOut" />
  <feComposite operator="atop" in="floodOut" in2="SourceGraphic" result="compOut" />
  <feBlend mode="normal" in="compOut" in2="SourceGraphic" />
</filter>

</defs><g filter="url(#Filter_0)">
<path opacity="0.502" fill="rgb( 198, 198, 198 )"
 d="M13.473,2.57100000000003 C13.473,2.57100000000003 12.316,2.57100000000003 12.316,2.57100000000003 C12.316,2.57100000000003 12.316,1.791 12.316,1.791 C12.316,1.35000000000002 11.956,0.993 11.513,0.993 C11.069,0.993 10.7089999999999,1.35000000000002 10.7089999999999,1.791 C10.7089999999999,1.791 10.7089999999999,2.57100000000003 10.7089999999999,2.57100000000003 C10.7089999999999,2.57100000000003 4.27999999999997,2.57100000000003 4.27999999999997,2.57100000000003 C4.27999999999997,2.57100000000003 4.27999999999997,1.791 4.27999999999997,1.791 C4.27999999999997,1.35000000000002 3.91999999999996,0.993 3.47699999999998,0.993 C3.03300000000002,0.993 2.673,1.35000000000002 2.673,1.791 C2.673,1.791 2.673,2.57100000000003 2.673,2.57100000000003 C2.673,2.57100000000003 1.52700000000004,2.57100000000003 1.52700000000004,2.57100000000003 C0.68299999999999,2.57100000000003 0,3.25 0,4.08800000000002 C0,4.08800000000002 0,8.05799999999999 0,8.05799999999999 C0,8.05799999999999 0,14.893 0,14.893 C0,14.893 0,16.49 0,16.49 C0,17.328 0.68299999999999,18.007 1.52700000000004,18.007 C1.52700000000004,18.007 13.473,18.007 13.473,18.007 C14.317,18.007 15,17.328 15,16.49 C15,16.49 15,14.893 15,14.893 C15,14.893 15,8.05799999999999 15,8.05799999999999 C15,8.05799999999999 15,4.08800000000002 15,4.08800000000002 C15,3.25 14.317,2.57100000000003 13.473,2.57100000000003 ZM2.13800000000003,3.63499999999999 C2.13800000000003,3.63499999999999 2.673,3.63499999999999 2.673,3.63499999999999 C2.673,3.63499999999999 2.673,3.90100000000001 2.673,3.90100000000001 C2.673,4.34300000000002 3.03300000000002,4.69999999999999 3.47699999999998,4.69999999999999 C3.91999999999996,4.69999999999999 4.27999999999997,4.34300000000002 4.27999999999997,3.90100000000001 C4.27999999999997,3.90100000000001 4.27999999999997,3.63499999999999 4.27999999999997,3.63499999999999 C4.27999999999997,3.63499999999999 4.81600000000003,3.63499999999999 4.81600000000003,3.63499999999999 C4.81600000000003,3.63499999999999 4.81600000000003,5.23200000000003 4.81600000000003,5.23200000000003 C4.81600000000003,5.23200000000003 2.13800000000003,5.23200000000003 2.13800000000003,5.23200000000003 C2.13800000000003,5.23200000000003 2.13800000000003,3.63499999999999 2.13800000000003,3.63499999999999 ZM10.17,3.63499999999999 C10.17,3.63499999999999 10.7089999999999,3.63499999999999 10.7089999999999,3.63499999999999 C10.7089999999999,3.63499999999999 10.7089999999999,3.90100000000001 10.7089999999999,3.90100000000001 C10.7089999999999,4.34300000000002 11.069,4.69999999999999 11.513,4.69999999999999 C11.956,4.69999999999999 12.316,4.34300000000002 12.316,3.90100000000001 C12.316,3.90100000000001 12.316,3.63499999999999 12.316,3.63499999999999 C12.316,3.63499999999999 12.849,3.63499999999999 12.849,3.63499999999999 C12.849,3.63499999999999 12.849,5.23200000000003 12.849,5.23200000000003 C12.849,5.23200000000003 10.17,5.23200000000003 10.17,5.23200000000003 C10.17,5.23200000000003 10.17,3.63499999999999 10.17,3.63499999999999 ZM13.473,16.942 C13.473,16.942 1.52700000000004,16.942 1.52700000000004,16.942 C1.27499999999998,16.942 1.07100000000003,16.74 1.07100000000003,16.49 C1.07100000000003,16.49 1.07100000000003,16.334 1.07100000000003,16.334 C1.21600000000001,16.379 1.36599999999999,16.41 1.52700000000004,16.41 C1.52700000000004,16.41 13.473,16.41 13.473,16.41 C13.6319999999999,16.41 13.784,16.379 13.929,16.334 C13.929,16.334 13.929,16.49 13.929,16.49 C13.929,16.74 13.725,16.942 13.473,16.942 ZM13.929,14.893 C13.929,15.143 13.725,15.346 13.473,15.346 C13.473,15.346 1.52700000000004,15.346 1.52700000000004,15.346 C1.27499999999998,15.346 1.07100000000003,15.143 1.07100000000003,14.893 C1.07100000000003,14.893 1.07100000000003,8.05799999999999 1.07100000000003,8.05799999999999 C1.07100000000003,8.05799999999999 1.07100000000003,6.29500000000002 1.07100000000003,6.29500000000002 C1.07100000000003,6.29500000000002 13.929,6.29500000000002 13.929,6.29500000000002 C13.929,6.29500000000002 13.929,8.05799999999999 13.929,8.05799999999999 C13.929,8.05799999999999 13.929,14.893 13.929,14.893 ZM9.70299999999997,7.89100000000002 C9.70299999999997,7.89100000000002 6.48800000000006,7.89100000000002 6.48800000000006,7.89100000000002 C6.48800000000006,7.89100000000002 6.48800000000006,8.95600000000002 6.48800000000006,8.95600000000002 C6.48800000000006,8.95600000000002 8.61699999999996,8.95600000000002 8.61699999999996,8.95600000000002 C8.61699999999996,8.95600000000002 6.72799999999995,13.216 6.72799999999995,13.216 C6.72799999999995,13.216 7.899,13.216 7.899,13.216  "/>
</g>
</svg>
