<?xml version="1.0" encoding="utf-8"?>
<!DOCTYPE svg PUBLIC "-//W3C//DTD SVG 1.1//EN" "http://www.w3.org/Graphics/SVG/1.1/DTD/svg11.dtd">
<svg version="1.1" baseProfile="full"
 xmlns="http://www.w3.org/2000/svg"
 xmlns:xlink="http://www.w3.org/1999/xlink"
 xmlns:ev="http://www.w3.org/2001/xml-events" 
  height="22px" 
  width="33px" 
>
<path fill="rgb( 255, 255, 255 )"
 d="M29.162,2.92000000000002 C29.712,2.92000000000002 30.158,3.368 30.158,3.92000000000002 C30.158,3.92000000000002 30.158,18.915 30.158,18.915 C30.158,19.467 29.712,19.915 29.162,19.915 C29.162,19.915 3.274,19.915 3.274,19.915 C2.725,19.915 2.278,19.467 2.278,18.915 C2.278,18.915 2.278,3.92000000000002 2.278,3.92000000000002 C2.278,3.368 2.725,2.92000000000002 3.274,2.92000000000002 C3.274,2.92000000000002 29.162,2.92000000000002 29.162,2.92000000000002 M29.162,0.92099999999999 C29.162,0.92099999999999 3.274,0.92099999999999 3.274,0.92099999999999 C1.624,0.92099999999999 0.288,2.26299999999998 0.288,3.92000000000002 C0.288,3.92000000000002 0.288,18.915 0.288,18.915 C0.288,20.572 1.624,21.914 3.274,21.914 C3.274,21.914 29.162,21.914 29.162,21.914 C30.812,21.914 32.149,20.572 32.149,18.915 C32.149,18.915 32.149,3.92000000000002 32.149,3.92000000000002 C32.149,2.26299999999998 30.812,0.92099999999999 29.162,0.92099999999999 C29.162,0.92099999999999 29.162,0.92099999999999 29.162,0.92099999999999 ZM1.289,5.91899999999998 C1.289,5.91899999999998 31.15,5.91899999999998 31.15,5.91899999999998 C31.15,5.91899999999998 31.15,9.91800000000001 31.15,9.91800000000001 C31.15,9.91800000000001 1.289,9.91800000000001 1.289,9.91800000000001 C1.289,9.91800000000001 1.289,5.91899999999998 1.289,5.91899999999998 Z "/>
</svg>
