<?xml version="1.0" encoding="utf-8"?>
<!DOCTYPE svg PUBLIC "-//W3C//DTD SVG 1.1//EN" "http://www.w3.org/Graphics/SVG/1.1/DTD/svg11.dtd">
<svg version="1.1" baseProfile="full"
 xmlns="http://www.w3.org/2000/svg"
 xmlns:xlink="http://www.w3.org/1999/xlink"
 xmlns:ev="http://www.w3.org/2001/xml-events" 
  height="10px" 
  width="10px" 
>
<path opacity="0.369" fill="rgb( 203, 203, 203 )"
 d="M9.99199999999996,9.18299999999999 C9.99199999999996,9.18299999999999 9.18299999999999,9.99199999999999 9.18299999999999,9.99199999999999 C9.18299999999999,9.99199999999999 4.85699999999997,5.66499999999999 4.85699999999997,5.66499999999999 C4.85699999999997,5.66499999999999 0.81700000000001,9.70599999999999 0.81700000000001,9.70599999999999 C0.81700000000001,9.70599999999999 0.00800000000004,8.898 0.00800000000004,8.898 C0.00800000000004,8.898 4.04899999999998,4.857 4.04899999999998,4.857 C4.04899999999998,4.857 0.29399999999998,1.102 0.29399999999998,1.102 C0.29399999999998,1.102 1.10199999999998,0.29400000000001 1.10199999999998,0.29400000000001 C1.10199999999998,0.29400000000001 4.85699999999997,4.04900000000001 4.85699999999997,4.04900000000001 C4.85699999999997,4.04900000000001 8.89800000000002,0.00800000000001 8.89800000000002,0.00800000000001 C8.89800000000002,0.00800000000001 9.70600000000002,0.81700000000001 9.70600000000002,0.81700000000001 C9.70600000000002,0.81700000000001 5.66499999999996,4.857 5.66499999999996,4.857 C5.66499999999996,4.857 9.99199999999996,9.18299999999999 9.99199999999996,9.18299999999999 Z "/>
</svg>
