<?xml version="1.0" encoding="utf-8"?>
<!DOCTYPE svg PUBLIC "-//W3C//DTD SVG 1.1//EN" "http://www.w3.org/Graphics/SVG/1.1/DTD/svg11.dtd">
<svg version="1.1" baseProfile="full"
 xmlns="http://www.w3.org/2000/svg"
 xmlns:xlink="http://www.w3.org/1999/xlink"
 xmlns:ev="http://www.w3.org/2001/xml-events" 
  height="27px" 
  width="27px" 
>
<path fill="rgb( 229, 189, 1 )"
 d="M25.323,25.243 C24.861,25.243 24.488,24.869 24.488,24.406 C24.488,12.4 14.743,2.63300000000001 2.764,2.63300000000001 C2.303,2.63300000000001 1.929,2.25800000000001 1.929,1.79599999999999 C1.929,1.333 2.303,0.959 2.764,0.959 C15.663,0.959 26.157,11.478 26.157,24.406 C26.157,24.869 25.784,25.243 25.323,25.243 ZM2.757,9.32600000000002 C11.428,9.32600000000002 17.811,15.775 17.811,24.466 C17.811,24.929 17.437,25.303 16.976,25.303 C16.514,25.303 16.141,24.929 16.141,24.466 C16.141,16.729 10.476,10.999 2.757,10.999 C2.295,10.999 1.922,10.625 1.922,10.163 C1.922,9.69999999999999 2.295,9.32600000000002 2.757,9.32600000000002 ZM9.446,22.355 C9.446,24.902 7.384,26.975 4.85,26.975 C2.316,26.975 0.254,24.902 0.254,22.355 C0.254,19.808 2.316,17.735 4.85,17.735 C7.384,17.735 9.446,19.808 9.446,22.355 ZM1.865,22.355 C1.865,24.01 3.203,25.356 4.85,25.356 C6.496,25.356 7.836,24.01 7.836,22.355 C7.836,20.7 6.496,19.354 4.85,19.354 C3.203,19.354 1.865,20.7 1.865,22.355 Z "/>
</svg>
