<?xml version="1.0" encoding="utf-8"?>
<!DOCTYPE svg PUBLIC "-//W3C//DTD SVG 1.1//EN" "http://www.w3.org/Graphics/SVG/1.1/DTD/svg11.dtd">
<svg version="1.1" baseProfile="full"
 xmlns="http://www.w3.org/2000/svg"
 xmlns:xlink="http://www.w3.org/1999/xlink"
 xmlns:ev="http://www.w3.org/2001/xml-events" 
  height="27px" 
  width="33px" 
>
<path fill="rgb( 255, 255, 255 )"
 d="M30.15,2.93299999999999 C30.15,2.93299999999999 30.15,19.934 30.15,19.934 C30.15,19.934 2.28,19.934 2.28,19.934 C2.28,19.934 2.28,2.93299999999999 2.28,2.93299999999999 C2.28,2.93299999999999 30.15,2.93299999999999 30.15,2.93299999999999 M30.15,0.93400000000003 C30.15,0.93400000000003 2.28,0.93400000000003 2.28,0.93400000000003 C1.185,0.93400000000003 0.289,1.834 0.289,2.93299999999999 C0.289,2.93299999999999 0.289,19.934 0.289,19.934 C0.289,21.033 1.185,21.933 2.28,21.933 C2.28,21.933 30.15,21.933 30.15,21.933 C31.245,21.933 32.141,21.033 32.141,19.934 C32.141,19.934 32.141,2.93299999999999 32.141,2.93299999999999 C32.141,1.834 31.245,0.93400000000003 30.15,0.93400000000003 C30.15,0.93400000000003 30.15,0.93400000000003 30.15,0.93400000000003 ZM17.21,20.94 C17.21,20.94 17.21,24.939 17.21,24.939 C17.21,24.939 22.187,24.939 22.187,24.939 C22.737,24.939 23.183,25.386 23.183,25.938 C23.183,26.491 22.737,26.938 22.187,26.938 C22.187,26.938 10.243,26.938 10.243,26.938 C9.693,26.938 9.247,26.491 9.247,25.938 C9.247,25.386 9.693,24.939 10.243,24.939 C10.243,24.939 15.22,24.939 15.22,24.939 C15.22,24.939 15.22,20.94 15.22,20.94 C15.22,20.94 17.21,20.94 17.21,20.94 Z "/>
</svg>
