<?xml version="1.0" encoding="utf-8"?>
<!DOCTYPE svg PUBLIC "-//W3C//DTD SVG 1.1//EN" "http://www.w3.org/Graphics/SVG/1.1/DTD/svg11.dtd">
<svg version="1.1" baseProfile="full"
 xmlns="http://www.w3.org/2000/svg"
 xmlns:xlink="http://www.w3.org/1999/xlink"
 xmlns:ev="http://www.w3.org/2001/xml-events" 
  height="33px" 
  width="19px" 
>
<path fill="rgb( 255, 255, 255 )"
 d="M15.19,2.99799999999999 C15.74,2.99799999999999 16.186,3.446 16.186,3.99799999999999 C16.186,3.99799999999999 16.186,29.99 16.186,29.99 C16.186,30.542 15.74,30.99 15.19,30.99 C15.19,30.99 3.237,30.99 3.237,30.99 C2.688,30.99 2.241,30.542 2.241,29.99 C2.241,29.99 2.241,3.99799999999999 2.241,3.99799999999999 C2.241,3.446 2.688,2.99799999999999 3.237,2.99799999999999 C3.237,2.99799999999999 15.19,2.99799999999999 15.19,2.99799999999999 M15.19,0.999 C15.19,0.999 3.237,0.999 3.237,0.999 C1.587,0.999 0.251,2.34100000000001 0.251,3.99799999999999 C0.251,3.99799999999999 0.251,29.99 0.251,29.99 C0.251,31.647 1.587,32.989 3.237,32.989 C3.237,32.989 15.19,32.989 15.19,32.989 C16.84,32.989 18.176,31.647 18.176,29.99 C18.176,29.99 18.176,3.99799999999999 18.176,3.99799999999999 C18.176,2.34100000000001 16.84,0.999 15.19,0.999 C15.19,0.999 15.19,0.999 15.19,0.999 ZM7.229,27.991 C7.229,29.092 8.118,29.985 9.215,29.985 C10.312,29.985 11.201,29.092 11.201,27.991 C11.201,26.89 10.312,25.997 9.215,25.997 C8.118,25.997 7.229,26.89 7.229,27.991 ZM7.224,3.99799999999999 C7.224,3.99799999999999 11.206,3.99799999999999 11.206,3.99799999999999 C11.755,3.99799999999999 12.201,4.446 12.201,4.99799999999999 C12.201,5.55000000000001 11.755,5.99700000000001 11.206,5.99700000000001 C11.206,5.99700000000001 7.224,5.99700000000001 7.224,5.99700000000001 C6.674,5.99700000000001 6.229,5.55000000000001 6.229,4.99799999999999 C6.229,4.446 6.674,3.99799999999999 7.224,3.99799999999999 Z "/>
</svg>
